<svg width="391" height="394" viewBox="0 0 391 394" fill="none" xmlns="http://www.w3.org/2000/svg">
<path d="M197 1L16 90.5L197 183.5L377 90.5L197 1Z" fill="#D9D9D9" stroke="black"/>
<path d="M67 154.5L1 117.5V302.5L67 331.5V154.5Z" fill="#D9D9D9"/>
<path d="M91.5 341V163.5L191.5 217L301 163.5V341L191.5 392.5L91.5 341Z" fill="#D9D9D9"/>
<path d="M390 117.5L325.5 154.5V331.5L390 302.5V117.5Z" fill="#D9D9D9"/>
<path d="M67 154.5L1 117.5V302.5L67 331.5V154.5Z" stroke="black"/>
<path d="M91.5 341V163.5L191.5 217L301 163.5V341L191.5 392.5L91.5 341Z" stroke="black"/>
<path d="M390 117.5L325.5 154.5V331.5L390 302.5V117.5Z" stroke="black"/>
</svg>
